# MagicaVoxel @ Ephtracy

# group
o 

# material
mtllib andrey.mtl
usemtl palette

# normals
vn -1 0 0
vn 1 0 0
vn 0 0 1
vn 0 0 -1
vn 0 -1 0
vn 0 1 0

# texcoords
vt 0.0566406 0.5
vt 0.294922 0.5
vt 0.310547 0.5
vt 0.314453 0.5
vt 0.755859 0.5
vt 0.775391 0.5
vt 0.912109 0.5
vt 0.958984 0.5
vt 0.990234 0.5

# verts
v -0.3 0.3 0
v -0.3 0.3 -0.2
v -0.3 0.4 0
v -0.3 0.4 -0.2
v -0.3 0.6 0
v -0.3 0.6 -0.2
v -0.2 0.1 0
v -0.2 0.1 -0.1
v -0.2 0.2 0.1
v -0.2 0.2 0
v -0.2 0.2 -0.1
v -0.2 0.2 -0.2
v -0.2 0.3 0.1
v -0.2 0.3 0
v -0.2 0.3 -0.2
v -0.2 0.4 0
v -0.2 0.6 0.2
v -0.2 0.6 0.1
v -0.2 0.6 0
v -0.2 0.6 -0.2
v -0.2 0.6 -0.3
v -0.2 0.7 0.1
v -0.2 0.7 -0.3
v -0.2 0.8 0.2
v -0.2 0.8 0.1
v -0.2 1 0.2
v -0.2 1 0.1
v -0.2 1 -0.2
v -0.2 1 -0.3
v -0.2 1.1 0.1
v -0.2 1.1 -0.2
v -0.1 0 0
v -0.1 0 -0.1
v -0.1 0.1 0.1
v -0.1 0.1 0
v -0.1 0.1 -0.1
v -0.1 0.1 -0.2
v -0.1 0.2 0.1
v -0.1 0.2 0
v -0.1 0.2 -0.1
v -0.1 0.2 -0.2
v -0.1 1 0.2
v -0.1 1 0.1
v -0.1 1 -0.2
v -0.1 1 -0.3
v -0.1 1.1 0.2
v -0.1 1.1 0.1
v -0.1 1.1 -0.2
v -0.1 1.1 -0.3
v 0.1 0 0
v 0.1 0 -0.1
v 0.1 0.1 0
v 0.1 0.1 -0.1
v -2.98023e-008 0 0
v -2.98023e-008 0 -0.1
v -2.98023e-008 0.1 0
v -2.98023e-008 0.1 -0.1
v 0.2 0 0
v 0.2 0 -0.1
v 0.2 0.1 0.1
v 0.2 0.1 0
v 0.2 0.1 -0.1
v 0.2 0.1 -0.2
v 0.2 0.2 0.1
v 0.2 0.2 0
v 0.2 0.2 -0.1
v 0.2 0.2 -0.2
v 0.2 1 0.2
v 0.2 1 0.1
v 0.2 1 -0.2
v 0.2 1 -0.3
v 0.2 1.1 0.2
v 0.2 1.1 0.1
v 0.2 1.1 -0.2
v 0.2 1.1 -0.3
v 0.3 0.1 0
v 0.3 0.1 -0.1
v 0.3 0.2 0.1
v 0.3 0.2 0
v 0.3 0.2 -0.1
v 0.3 0.2 -0.2
v 0.3 0.3 0.1
v 0.3 0.3 0
v 0.3 0.3 -0.2
v 0.3 0.4 0
v 0.3 0.6 0.2
v 0.3 0.6 0.1
v 0.3 0.6 0
v 0.3 0.6 -0.2
v 0.3 0.6 -0.3
v 0.3 0.7 0
v 0.3 0.7 -0.3
v 0.3 0.8 0.2
v 0.3 0.8 0
v 0.3 1 0.2
v 0.3 1 0.1
v 0.3 1 -0.2
v 0.3 1 -0.3
v 0.3 1.1 0.1
v 0.3 1.1 -0.2
v 0.4 0.3 0
v 0.4 0.3 -0.2
v 0.4 0.4 0
v 0.4 0.4 -0.2
v 0.4 0.6 0
v 0.4 0.6 -0.2
v -0.2 0.6 0.2
v -0.2 0.8 0.2
v -0.2 1 0.2
v -0.1 0.7 0.2
v -0.1 0.8 0.2
v -0.1 0.9 0.2
v -0.1 1 0.2
v -0.1 1.1 0.2
v -2.98023e-008 0.7 0.2
v -2.98023e-008 0.8 0.2
v 0.1 0.7 0.2
v 0.1 0.8 0.2
v 0.2 0.7 0.2
v 0.2 0.8 0.2
v 0.2 0.9 0.2
v 0.2 1 0.2
v 0.2 1.1 0.2
v 0.3 0.6 0.2
v 0.3 0.8 0.2
v 0.3 1 0.2
v -0.2 0.2 0.1
v -0.2 0.3 0.1
v -0.2 0.6 0.1
v -0.2 1 0.1
v -0.2 1.1 0.1
v -0.1 0.1 0.1
v -0.1 0.2 0.1
v -0.1 1 0.1
v -0.1 1.1 0.1
v 0.2 0.1 0.1
v 0.2 0.2 0.1
v 0.2 1 0.1
v 0.2 1.1 0.1
v 0.3 0.2 0.1
v 0.3 0.3 0.1
v 0.3 0.6 0.1
v 0.3 1 0.1
v 0.3 1.1 0.1
v -0.3 0.3 0
v -0.3 0.4 0
v -0.3 0.6 0
v -0.2 0.1 0
v -0.2 0.2 0
v -0.2 0.3 0
v -0.2 0.4 0
v -0.2 0.6 0
v -0.1 0 0
v -0.1 0.1 0
v -0.1 0.2 0
v -2.98023e-008 0 0
v -2.98023e-008 0.1 0
v 0.1 0 0
v 0.1 0.1 0
v 0.2 0 0
v 0.2 0.1 0
v 0.2 0.2 0
v 0.3 0.1 0
v 0.3 0.2 0
v 0.3 0.3 0
v 0.3 0.4 0
v 0.3 0.6 0
v 0.4 0.3 0
v 0.4 0.4 0
v 0.4 0.6 0
v -0.2 0.1 -0.1
v -0.2 0.2 -0.1
v -0.1 0 -0.1
v -0.1 0.1 -0.1
v -0.1 0.2 -0.1
v -2.98023e-008 0 -0.1
v -2.98023e-008 0.1 -0.1
v 0.1 0 -0.1
v 0.1 0.1 -0.1
v 0.2 0 -0.1
v 0.2 0.1 -0.1
v 0.2 0.2 -0.1
v 0.3 0.1 -0.1
v 0.3 0.2 -0.1
v -0.3 0.3 -0.2
v -0.3 0.4 -0.2
v -0.3 0.6 -0.2
v -0.2 0.2 -0.2
v -0.2 0.3 -0.2
v -0.2 0.4 -0.2
v -0.2 0.6 -0.2
v -0.2 1 -0.2
v -0.2 1.1 -0.2
v -0.1 0.1 -0.2
v -0.1 0.2 -0.2
v -0.1 1 -0.2
v -0.1 1.1 -0.2
v 0.2 0.1 -0.2
v 0.2 0.2 -0.2
v 0.2 1 -0.2
v 0.2 1.1 -0.2
v 0.3 0.2 -0.2
v 0.3 0.3 -0.2
v 0.3 0.4 -0.2
v 0.3 0.6 -0.2
v 0.3 1 -0.2
v 0.3 1.1 -0.2
v 0.4 0.3 -0.2
v 0.4 0.4 -0.2
v 0.4 0.6 -0.2
v -0.2 0.6 -0.3
v -0.2 0.7 -0.3
v -0.2 1 -0.3
v -0.1 1 -0.3
v -0.1 1.1 -0.3
v 0.2 1 -0.3
v 0.2 1.1 -0.3
v 0.3 0.6 -0.3
v 0.3 0.7 -0.3
v 0.3 1 -0.3
v -0.1 0 0
v -2.98023e-008 0 0
v 0.1 0 0
v 0.2 0 0
v -0.1 0 -0.1
v -2.98023e-008 0 -0.1
v 0.1 0 -0.1
v 0.2 0 -0.1
v -0.1 0.1 0.1
v 0.2 0.1 0.1
v -0.2 0.1 0
v -0.1 0.1 0
v -2.98023e-008 0.1 0
v 0.1 0.1 0
v 0.2 0.1 0
v 0.3 0.1 0
v -0.2 0.1 -0.1
v -0.1 0.1 -0.1
v -2.98023e-008 0.1 -0.1
v 0.1 0.1 -0.1
v 0.2 0.1 -0.1
v 0.3 0.1 -0.1
v -0.1 0.1 -0.2
v 0.2 0.1 -0.2
v -0.2 0.2 0.1
v -0.1 0.2 0.1
v 0.2 0.2 0.1
v 0.3 0.2 0.1
v -0.2 0.2 0
v -0.1 0.2 0
v 0.2 0.2 0
v 0.3 0.2 0
v -0.2 0.2 -0.1
v -0.1 0.2 -0.1
v 0.2 0.2 -0.1
v 0.3 0.2 -0.1
v -0.2 0.2 -0.2
v -0.1 0.2 -0.2
v 0.2 0.2 -0.2
v 0.3 0.2 -0.2
v -0.3 0.3 0
v -0.2 0.3 0
v 0.3 0.3 0
v 0.4 0.3 0
v -0.3 0.3 -0.2
v -0.2 0.3 -0.2
v 0.3 0.3 -0.2
v 0.4 0.3 -0.2
v -0.2 0.6 0.2
v 0.3 0.6 0.2
v -0.2 0.6 0.1
v 0.3 0.6 0.1
v -0.2 0.6 -0.2
v 0.3 0.6 -0.2
v -0.2 0.6 -0.3
v 0.3 0.6 -0.3
v -0.3 0.6 0
v -0.2 0.6 0
v 0.3 0.6 0
v 0.4 0.6 0
v -0.3 0.6 -0.2
v -0.2 0.6 -0.2
v 0.3 0.6 -0.2
v 0.4 0.6 -0.2
v -0.2 1 0.2
v -0.1 1 0.2
v 0.2 1 0.2
v 0.3 1 0.2
v -0.2 1 0.1
v -0.1 1 0.1
v 0.2 1 0.1
v 0.3 1 0.1
v -0.2 1 -0.2
v -0.1 1 -0.2
v 0.2 1 -0.2
v 0.3 1 -0.2
v -0.2 1 -0.3
v -0.1 1 -0.3
v 0.2 1 -0.3
v 0.3 1 -0.3
v -0.1 1.1 0.2
v 0.2 1.1 0.2
v -0.2 1.1 0.1
v -0.1 1.1 0.1
v 0.2 1.1 0.1
v 0.3 1.1 0.1
v -0.2 1.1 -0.2
v -0.1 1.1 -0.2
v 0.2 1.1 -0.2
v 0.3 1.1 -0.2
v -0.1 1.1 -0.3
v 0.2 1.1 -0.3

# faces
f 3/4/1 2/4/1 1/4/1
f 4/4/1 2/4/1 3/4/1
f 5/5/1 4/5/1 3/5/1
f 6/5/1 4/5/1 5/5/1
f 10/6/1 8/6/1 7/6/1
f 11/6/1 8/6/1 10/6/1
f 13/6/1 10/6/1 9/6/1
f 13/6/1 12/6/1 11/6/1
f 13/6/1 11/6/1 10/6/1
f 14/6/1 12/6/1 13/6/1
f 15/6/1 12/6/1 14/6/1
f 16/5/1 14/5/1 13/5/1
f 18/5/1 16/5/1 13/5/1
f 19/5/1 16/5/1 18/5/1
f 22/4/1 20/4/1 19/4/1
f 22/4/1 21/4/1 20/4/1
f 22/4/1 18/4/1 17/4/1
f 22/4/1 19/4/1 18/4/1
f 23/4/1 21/4/1 22/4/1
f 24/4/1 22/4/1 17/4/1
f 25/3/1 23/3/1 22/3/1
f 25/4/1 22/4/1 24/4/1
f 26/3/1 25/3/1 24/3/1
f 27/3/1 23/3/1 25/3/1
f 27/3/1 25/3/1 26/3/1
f 28/3/1 23/3/1 27/3/1
f 29/3/1 23/3/1 28/3/1
f 30/3/1 28/3/1 27/3/1
f 31/3/1 28/3/1 30/3/1
f 35/9/1 33/9/1 32/9/1
f 36/9/1 33/9/1 35/9/1
f 38/6/1 35/6/1 34/6/1
f 39/6/1 35/6/1 38/6/1
f 40/6/1 37/6/1 36/6/1
f 41/6/1 37/6/1 40/6/1
f 46/3/1 43/3/1 42/3/1
f 47/3/1 43/3/1 46/3/1
f 48/3/1 45/3/1 44/3/1
f 49/3/1 45/3/1 48/3/1
f 52/9/1 51/9/1 50/9/1
f 53/9/1 51/9/1 52/9/1
f 54/9/2 55/9/2 56/9/2
f 56/9/2 55/9/2 57/9/2
f 58/9/2 59/9/2 61/9/2
f 61/9/2 59/9/2 62/9/2
f 60/6/2 61/6/2 64/6/2
f 64/6/2 61/6/2 65/6/2
f 62/6/2 63/6/2 66/6/2
f 66/6/2 63/6/2 67/6/2
f 68/3/2 69/3/2 72/3/2
f 72/3/2 69/3/2 73/3/2
f 70/3/2 71/3/2 74/3/2
f 74/3/2 71/3/2 75/3/2
f 76/6/2 77/6/2 79/6/2
f 79/6/2 77/6/2 80/6/2
f 78/6/2 79/6/2 82/6/2
f 80/6/2 81/6/2 82/6/2
f 79/6/2 80/6/2 82/6/2
f 82/6/2 81/6/2 83/6/2
f 83/6/2 81/6/2 84/6/2
f 82/5/2 83/5/2 85/5/2
f 82/5/2 85/5/2 87/5/2
f 87/5/2 85/5/2 88/5/2
f 88/4/2 89/4/2 91/4/2
f 89/4/2 90/4/2 91/4/2
f 86/4/2 87/4/2 91/4/2
f 87/4/2 88/4/2 91/4/2
f 91/4/2 90/4/2 92/4/2
f 86/4/2 91/4/2 93/4/2
f 91/3/2 92/3/2 94/3/2
f 93/4/2 91/4/2 94/4/2
f 93/3/2 94/3/2 95/3/2
f 95/3/2 94/3/2 96/3/2
f 94/3/2 92/3/2 97/3/2
f 96/3/2 94/3/2 97/3/2
f 97/3/2 92/3/2 98/3/2
f 96/3/2 97/3/2 99/3/2
f 99/3/2 97/3/2 100/3/2
f 101/4/2 102/4/2 103/4/2
f 103/4/2 102/4/2 104/4/2
f 103/5/2 104/5/2 105/5/2
f 105/5/2 104/5/2 106/5/2
f 110/4/3 108/4/3 107/4/3
f 111/3/3 109/3/3 108/3/3
f 111/4/3 108/4/3 110/4/3
f 112/3/3 109/3/3 111/3/3
f 113/3/3 109/3/3 112/3/3
f 115/4/3 110/4/3 107/4/3
f 115/8/3 111/8/3 110/8/3
f 116/4/3 112/4/3 111/4/3
f 116/8/3 111/8/3 115/8/3
f 117/4/3 115/4/3 107/4/3
f 117/4/3 116/4/3 115/4/3
f 118/4/3 112/4/3 116/4/3
f 118/4/3 116/4/3 117/4/3
f 119/4/3 117/4/3 107/4/3
f 119/8/3 118/8/3 117/8/3
f 120/4/3 112/4/3 118/4/3
f 120/8/3 118/8/3 119/8/3
f 121/3/3 114/3/3 113/3/3
f 121/4/3 112/4/3 120/4/3
f 121/3/3 113/3/3 112/3/3
f 122/3/3 114/3/3 121/3/3
f 123/3/3 114/3/3 122/3/3
f 124/4/3 120/4/3 119/4/3
f 124/4/3 119/4/3 107/4/3
f 125/3/3 122/3/3 121/3/3
f 125/4/3 120/4/3 124/4/3
f 125/3/3 121/3/3 120/3/3
f 126/3/3 122/3/3 125/3/3
f 133/6/3 128/6/3 127/6/3
f 134/3/3 131/3/3 130/3/3
f 135/3/3 131/3/3 134/3/3
f 136/6/3 133/6/3 132/6/3
f 137/6/3 128/6/3 133/6/3
f 137/6/3 133/6/3 136/6/3
f 140/6/3 128/6/3 137/6/3
f 141/5/3 129/5/3 128/5/3
f 141/6/3 128/6/3 140/6/3
f 142/5/3 129/5/3 141/5/3
f 143/3/3 139/3/3 138/3/3
f 144/3/3 139/3/3 143/3/3
f 150/4/3 146/4/3 145/4/3
f 151/5/3 147/5/3 146/5/3
f 151/4/3 146/4/3 150/4/3
f 152/5/3 147/5/3 151/5/3
f 154/6/3 149/6/3 148/6/3
f 155/6/3 149/6/3 154/6/3
f 156/9/3 154/9/3 153/9/3
f 157/9/3 154/9/3 156/9/3
f 160/9/3 159/9/3 158/9/3
f 161/9/3 159/9/3 160/9/3
f 163/6/3 162/6/3 161/6/3
f 164/6/3 162/6/3 163/6/3
f 168/4/3 166/4/3 165/4/3
f 169/5/3 167/5/3 166/5/3
f 169/4/3 166/4/3 168/4/3
f 170/5/3 167/5/3 169/5/3
f 171/6/4 172/6/4 174/6/4
f 174/6/4 172/6/4 175/6/4
f 173/9/4 174/9/4 176/9/4
f 176/9/4 174/9/4 177/9/4
f 178/9/4 179/9/4 180/9/4
f 180/9/4 179/9/4 181/9/4
f 181/6/4 182/6/4 183/6/4
f 183/6/4 182/6/4 184/6/4
f 185/4/4 186/4/4 189/4/4
f 186/5/4 187/5/4 190/5/4
f 189/4/4 186/4/4 190/4/4
f 190/5/4 187/5/4 191/5/4
f 188/6/4 189/6/4 195/6/4
f 192/3/4 193/3/4 196/3/4
f 196/3/4 193/3/4 197/3/4
f 194/6/4 195/6/4 198/6/4
f 195/6/4 189/6/4 199/6/4
f 198/6/4 195/6/4 199/6/4
f 199/6/4 189/6/4 202/6/4
f 189/5/4 190/5/4 203/5/4
f 202/6/4 189/6/4 203/6/4
f 190/5/4 191/5/4 203/5/4
f 203/5/4 191/5/4 204/5/4
f 204/5/4 191/5/4 205/5/4
f 200/3/4 201/3/4 206/3/4
f 206/3/4 201/3/4 207/3/4
f 203/4/4 204/4/4 208/4/4
f 204/5/4 205/5/4 209/5/4
f 208/4/4 204/4/4 209/4/4
f 209/5/4 205/5/4 210/5/4
f 212/3/4 213/3/4 214/3/4
f 212/3/4 214/3/4 216/3/4
f 214/3/4 215/3/4 216/3/4
f 216/3/4 215/3/4 217/3/4
f 211/4/4 212/4/4 218/4/4
f 212/3/4 216/3/4 219/3/4
f 218/4/4 212/4/4 219/4/4
f 219/3/4 216/3/4 220/3/4
f 225/9/5 222/9/5 221/9/5
f 226/9/5 222/9/5 225/9/5
f 227/9/5 224/9/5 223/9/5
f 228/9/5 224/9/5 227/9/5
f 232/6/5 230/6/5 229/6/5
f 233/6/5 230/6/5 232/6/5
f 234/6/5 230/6/5 233/6/5
f 235/6/5 230/6/5 234/6/5
f 237/6/5 232/6/5 231/6/5
f 238/6/5 232/6/5 237/6/5
f 239/6/5 234/6/5 233/6/5
f 240/6/5 234/6/5 239/6/5
f 241/6/5 236/6/5 235/6/5
f 242/6/5 236/6/5 241/6/5
f 243/6/5 240/6/5 239/6/5
f 243/6/5 241/6/5 240/6/5
f 243/6/5 239/6/5 238/6/5
f 244/6/5 241/6/5 243/6/5
f 249/6/5 246/6/5 245/6/5
f 250/6/5 246/6/5 249/6/5
f 251/6/5 248/6/5 247/6/5
f 252/6/5 248/6/5 251/6/5
f 257/6/5 254/6/5 253/6/5
f 258/6/5 254/6/5 257/6/5
f 259/6/5 256/6/5 255/6/5
f 260/6/5 256/6/5 259/6/5
f 265/4/5 262/4/5 261/4/5
f 266/4/5 262/4/5 265/4/5
f 267/4/5 264/4/5 263/4/5
f 268/4/5 264/4/5 267/4/5
f 271/4/5 270/4/5 269/4/5
f 272/4/5 270/4/5 271/4/5
f 275/4/5 274/4/5 273/4/5
f 276/4/5 274/4/5 275/4/5
f 277/5/6 278/5/6 281/5/6
f 281/5/6 278/5/6 282/5/6
f 279/5/6 280/5/6 283/5/6
f 283/5/6 280/5/6 284/5/6
f 285/3/6 286/3/6 289/3/6
f 289/3/6 286/3/6 290/3/6
f 287/3/6 288/3/6 291/3/6
f 291/3/6 288/3/6 292/3/6
f 293/3/6 294/3/6 297/3/6
f 297/3/6 294/3/6 298/3/6
f 295/3/6 296/3/6 299/3/6
f 299/3/6 296/3/6 300/3/6
f 301/3/6 302/3/6 304/3/6
f 304/3/6 302/3/6 305/3/6
f 303/3/6 304/3/6 307/3/6
f 305/3/6 306/3/6 307/3/6
f 304/3/6 305/3/6 307/3/6
f 307/3/6 306/3/6 308/3/6
f 308/3/6 306/3/6 309/3/6
f 309/3/6 306/3/6 310/3/6
f 308/3/6 309/3/6 311/3/6
f 311/3/6 309/3/6 312/3/6
